<svg xmlns="http://www.w3.org/2000/svg" width="96" height="96" viewBox="0 0 96 96" fill="none">
  <circle cx="48" cy="48" r="44" fill="#86D5BE"/>
  <circle cx="48" cy="35" r="15" fill="#F9D6C2"/>
  <path d="M20 80C24 64 35 57 48 57C61 57 72 64 76 80" fill="#3E8C71"/>
  <path d="M32 32C33 23 40 19 48 19C56 19 63 23 64 32L58 31C57 26 53 24 48 24C43 24 39 26 38 31L32 32Z" fill="#345D52"/>
  <circle cx="43" cy="35" r="1.8" fill="#5D4741"/>
  <circle cx="53" cy="35" r="1.8" fill="#5D4741"/>
  <path d="M44 43C46 44.4 50 44.4 52 43" stroke="#AA7763" stroke-width="2" stroke-linecap="round"/>
</svg>
