<svg xmlns="http://www.w3.org/2000/svg" width="96" height="96" viewBox="0 0 96 96" fill="none">
  <circle cx="48" cy="48" r="44" fill="#F8D778"/>
  <circle cx="48" cy="35" r="15" fill="#F8D5BF"/>
  <path d="M20 80C24 64 35 57 48 57C61 57 72 64 76 80" fill="#7A9654"/>
  <path d="M31 32C32 22 40 17 48 17C56 17 64 22 65 32C59 26 53 24 48 24C43 24 37 26 31 32Z" fill="#8B6C35"/>
  <circle cx="43" cy="36" r="1.8" fill="#624C45"/>
  <circle cx="53" cy="36" r="1.8" fill="#624C45"/>
  <path d="M44 43C46 44.5 50 44.5 52 43" stroke="#A97864" stroke-width="2" stroke-linecap="round"/>
</svg>
